<?xml version="1.0" encoding="UTF-8" standalone="no"?>
<svg width="248px" height="201px" viewBox="0 0 288 201" version="1.1" xmlns="http://www.w3.org/2000/svg" xmlns:xlink="http://www.w3.org/1999/xlink">
    <!-- Generator: Sketch 46.2 (44496) - http://www.bohemiancoding.com/sketch -->
    <desc>Created with Sketch.</desc>
    <defs>
        <rect id="path-1" x="0" y="88.0093897" width="120.622568" height="117.99061" rx="21.2571429"></rect>
        <filter x="-2.9%" y="-3.0%" width="105.8%" height="105.9%" filterUnits="objectBoundingBox" id="filter-2">
            <feGaussianBlur stdDeviation="1.5" in="SourceAlpha" result="shadowBlurInner1"></feGaussianBlur>
            <feOffset dx="4" dy="4" in="shadowBlurInner1" result="shadowOffsetInner1"></feOffset>
            <feComposite in="shadowOffsetInner1" in2="SourceAlpha" operator="arithmetic" k2="-1" k3="1" result="shadowInnerInner1"></feComposite>
            <feColorMatrix values="0 0 0 0 0.733333333   0 0 0 0 0.905882353   0 0 0 0 0.11372549  0 0 0 1 0" type="matrix" in="shadowInnerInner1"></feColorMatrix>
        </filter>
        <path d="M0,2.0615747e-14 C0,1.37438313e-14 0,6.87191566e-15 0,3.15544362e-30 C14.4776523,4.98869522e-15 28.9553047,9.97739044e-15 43.432957,1.49660857e-14 L43.432957,2.84217094e-14 C52.4881276,2.67583016e-14 59.8287938,7.34066615 59.8287938,16.3958367 L59.8287938,59.9624413 L16.3958367,59.9624413 L16.3958367,59.9624413 C7.34066615,59.9624413 4.19306237e-15,52.6217752 7.10542736e-15,43.5666046 L0,2.0615747e-14 Z" id="path-3"></path>
        <filter x="-3.3%" y="-3.3%" width="106.7%" height="106.7%" filterUnits="objectBoundingBox" id="filter-4">
            <feGaussianBlur stdDeviation="1" in="SourceAlpha" result="shadowBlurInner1"></feGaussianBlur>
            <feOffset dx="-2" dy="2" in="shadowBlurInner1" result="shadowOffsetInner1"></feOffset>
            <feComposite in="shadowOffsetInner1" in2="SourceAlpha" operator="arithmetic" k2="-1" k3="1" result="shadowInnerInner1"></feComposite>
            <feColorMatrix values="0 0 0 0 0.945098039   0 0 0 0 0.454901961   0 0 0 0 0.262745098  0 0 0 1 0" type="matrix" in="shadowInnerInner1"></feColorMatrix>
        </filter>
        <rect id="path-5" x="8.22645914" y="9.74389671" width="21.6879377" height="12.7420188"></rect>
        <path d="M32.8093385,9.74389671 L45.8760524,9.74389671 L45.8760524,9.74389671 C49.6115056,9.74389671 52.6396887,12.7720799 52.6396887,16.5075331 L52.6396887,22.4859155 L32.8093385,22.4859155 L32.8093385,9.74389671 Z" id="path-6"></path>
        <rect id="path-7" x="8.22645914" y="25.4840376" width="5.98287938" height="11.9924879"></rect>
        <rect id="path-8" x="16.814786" y="25.4840376" width="19.8303502" height="11.9924879"></rect>
        <rect id="path-9" x="39.5642023" y="25.4840376" width="13.0754864" height="11.9924879"></rect>
        <rect id="path-10" x="32.736965" y="40.4746479" width="19.8303502" height="11.9924883"></rect>
        <rect id="path-11" x="8.22645914" y="40.4746479" width="21.6879377" height="11.9924883"></rect>
        <path d="M10.5435429,-1.0658141e-13 L59.8287938,-1.0658141e-13 C59.8287938,-7.22218321e-14 59.8287938,-3.78622538e-14 59.8287938,-3.50267546e-15 C59.8287938,16.1505874 59.8287938,32.3011749 59.8287938,48.4517623 L59.8287938,48.4517623 C59.8287938,54.2748002 55.1082888,58.9953052 49.2852509,58.9953052 L10.5435429,58.9953052 L10.5435429,58.9953052 C4.72050493,58.9953052 2.48947332e-15,54.2748002 1.77635684e-15,48.4517623 L0,10.5435429 L0,10.5435429 C-7.13116476e-16,4.72050493 4.72050493,-1.03735379e-13 10.5435429,-1.04805054e-13 Z" id="path-12"></path>
        <filter x="-2.5%" y="-2.5%" width="105.0%" height="105.1%" filterUnits="objectBoundingBox" id="filter-13">
            <feGaussianBlur stdDeviation="0.5" in="SourceAlpha" result="shadowBlurInner1"></feGaussianBlur>
            <feOffset dx="-2" dy="-2" in="shadowBlurInner1" result="shadowOffsetInner1"></feOffset>
            <feComposite in="shadowOffsetInner1" in2="SourceAlpha" operator="arithmetic" k2="-1" k3="1" result="shadowInnerInner1"></feComposite>
            <feColorMatrix values="0 0 0 0 0.376470588   0 0 0 0 0.733333333   0 0 0 0 0.360784314  0 0 0 1 0" type="matrix" in="shadowInnerInner1"></feColorMatrix>
        </filter>
        <rect id="path-14" x="1.3292889" y="36.32483" width="4.43644274" height="2.8820282"></rect>
        <rect id="path-15" x="25.4843583" y="13.0427963" width="4.43644274" height="2.8820282"></rect>
        <rect id="path-16" x="7.2448161" y="30.380481" width="4.43644274" height="2.8820282"></rect>
        <rect id="path-17" x="13.1603433" y="24.436132" width="4.43644274" height="2.8820282"></rect>
        <rect id="path-18" x="31.3998855" y="7.09844732" width="4.43644274" height="2.8820282"></rect>
        <rect id="path-19" x="37.3154127" y="1.1540983" width="4.43644274" height="2.8820282"></rect>
        <path d="M10.5435429,1.01711796e-13 C26.9719598,6.72157452e-14 43.4003768,3.27196942e-14 59.8287938,-1.77635684e-15 C59.8287938,4.00993988e-14 59.8287938,8.19751544e-14 59.8287938,1.2385091e-13 L59.8287938,48.4517623 L59.8287938,48.4517623 C59.8287938,54.2748002 55.1082888,58.9953052 49.2852509,58.9953052 L10.5435429,58.9953052 L10.5435429,58.9953052 C4.72050493,58.9953052 5.55942584e-16,54.2748002 -5.32907052e-15,48.4517623 L-1.77635684e-15,10.5435429 L2.13162821e-14,10.5435429 C2.06031656e-14,4.72050493 4.72050493,1.3398209e-13 10.5435429,1.22568622e-13 Z" id="path-20"></path>
        <filter x="-2.5%" y="-2.5%" width="105.0%" height="105.1%" filterUnits="objectBoundingBox" id="filter-21">
            <feGaussianBlur stdDeviation="0.5" in="SourceAlpha" result="shadowBlurInner1"></feGaussianBlur>
            <feOffset dx="2" dy="2" in="shadowBlurInner1" result="shadowOffsetInner1"></feOffset>
            <feComposite in="shadowOffsetInner1" in2="SourceAlpha" operator="arithmetic" k2="-1" k3="1" result="shadowInnerInner1"></feComposite>
            <feColorMatrix values="0 0 0 0 0.160784314   0 0 0 0 0.474509804   0 0 0 0 0.745098039  0 0 0 1 0" type="matrix" in="shadowInnerInner1"></feColorMatrix>
        </filter>
        <rect id="path-22" x="0" y="29.0140845" width="175.626459" height="142.169014" rx="7.72987013"></rect>
        <filter x="-0.9%" y="-1.1%" width="101.7%" height="102.1%" filterUnits="objectBoundingBox" id="filter-24">
            <feGaussianBlur stdDeviation="0.5" in="SourceAlpha" result="shadowBlurInner1"></feGaussianBlur>
            <feOffset dx="2" dy="2" in="shadowBlurInner1" result="shadowOffsetInner1"></feOffset>
            <feComposite in="shadowOffsetInner1" in2="SourceAlpha" operator="arithmetic" k2="-1" k3="1" result="shadowInnerInner1"></feComposite>
            <feColorMatrix values="0 0 0 0 0.943718112   0 0 0 0 0.925044082   0 0 0 0 0.925044082  0 0 0 0.5 0" type="matrix" in="shadowInnerInner1" result="shadowMatrixInner1"></feColorMatrix>
            <feGaussianBlur stdDeviation="0.5" in="SourceAlpha" result="shadowBlurInner2"></feGaussianBlur>
            <feOffset dx="1" dy="1" in="shadowBlurInner2" result="shadowOffsetInner2"></feOffset>
            <feComposite in="shadowOffsetInner2" in2="SourceAlpha" operator="arithmetic" k2="-1" k3="1" result="shadowInnerInner2"></feComposite>
            <feColorMatrix values="0 0 0 0 0   0 0 0 0 0   0 0 0 0 0  0 0 0 0.819831295 0" type="matrix" in="shadowInnerInner2" result="shadowMatrixInner2"></feColorMatrix>
            <feMerge>
                <feMergeNode in="shadowMatrixInner1"></feMergeNode>
                <feMergeNode in="shadowMatrixInner2"></feMergeNode>
            </feMerge>
        </filter>
        <linearGradient x1="140.682706%" y1="-22.1391263%" x2="-26.0009766%" y2="138.497151%" id="linearGradient-25">
            <stop stop-color="#EEEEEE" offset="0%"></stop>
            <stop stop-color="#EEEEEE" offset="1.93073328%"></stop>
            <stop stop-color="#EDEDED" offset="36.6644278%"></stop>
            <stop stop-color="#E9E8E8" offset="38.9688553%"></stop>
            <stop stop-color="#656464" offset="100%"></stop>
        </linearGradient>
        <linearGradient x1="75.8704144%" y1="-262.739203%" x2="-167.671535%" y2="445.784322%" id="linearGradient-26">
            <stop stop-color="#FFFFFF" offset="0%"></stop>
            <stop stop-color="#000000" offset="100%"></stop>
        </linearGradient>
    </defs>
    <g id="Page-1" stroke="none" stroke-width="1" fill="none" fill-rule="evenodd">
        <g id="PowerNSX">
            <g id="Rectangle-1">
                <use fill="#8FC542" fill-rule="evenodd" xlink:href="#path-1"></use>
                <use fill="black" fill-opacity="1" filter="url(#filter-2)" xlink:href="#path-1"></use>
                <rect stroke-opacity="0.43" stroke="#5CAF18" stroke-width="0.966233766" x="0.483116883" y="88.4925066" width="119.656334" height="117.024377" rx="21.2571429"></rect>
            </g>
            <g id="Oval-1" transform="translate(36.669261, 0.000000)">
                <g id="Red-Firewall" transform="translate(150.536965, 0.000000)">
                    <g id="Rectangle-1">
                        <use fill="#D85427" fill-rule="evenodd" xlink:href="#path-3"></use>
                        <use fill="black" fill-opacity="1" filter="url(#filter-4)" xlink:href="#path-3"></use>
                        <path stroke="#B84F26" stroke-width="0.536796537" d="M0.268398268,0.268398268 L0.268398268,43.5666046 C0.268398268,52.4735429 7.48889842,59.694043 16.3958367,59.694043 L59.5603955,59.694043 L59.5603955,16.3958367 C59.5603955,7.48889842 52.3398954,0.268398268 43.432957,1.49660857e-14 L43.432957,0.268398268 C21.8506777,0.268398268 21.7173078,0.268398268 0.400119761,0.268398268 L0.268398268,0.268398268 Z"></path>
                    </g>
                    <g id="Rectangle-2">
                        <use fill="#FFFFFF" fill-rule="evenodd" xlink:href="#path-5"></use>
                        <rect stroke="#FFFFFF" stroke-width="0.536796537" x="8.49485741" y="10.012295" width="21.1511412" height="12.2052222"></rect>
                    </g>
                    <g id="Rectangle-3">
                        <use fill="#FFFFFF" fill-rule="evenodd" xlink:href="#path-6"></use>
                        <path stroke="#FFFFFF" stroke-width="0.536796537" d="M33.0777368,10.012295 L33.0777368,22.2175172 L52.3712904,22.2175172 L52.3712904,16.5075331 C52.3712904,12.9203121 49.4632733,10.012295 45.8760524,10.012295 L33.0777368,10.012295 Z"></path>
                    </g>
                    <g id="Rectangle-4">
                        <use fill="#FFFFFF" fill-rule="evenodd" xlink:href="#path-7"></use>
                        <rect stroke="#FFFFFF" stroke-width="0.536796537" x="8.49485741" y="25.7524358" width="5.44608284" height="11.4556914"></rect>
                    </g>
                    <g id="Rectangle-5">
                        <use fill="#FFFFFF" fill-rule="evenodd" xlink:href="#path-8"></use>
                        <rect stroke="#FFFFFF" stroke-width="0.536796537" x="17.0831843" y="25.7524358" width="19.2935537" height="11.4556914"></rect>
                    </g>
                    <g id="Rectangle-6">
                        <use fill="#FFFFFF" fill-rule="evenodd" xlink:href="#path-9"></use>
                        <rect stroke="#FFFFFF" stroke-width="0.536796537" x="39.8326006" y="25.7524358" width="12.5386898" height="11.4556914"></rect>
                    </g>
                    <g id="Rectangle-7">
                        <use fill="#FFFFFF" fill-rule="evenodd" xlink:href="#path-10"></use>
                        <rect stroke="#FFFFFF" stroke-width="0.536796537" x="33.0053632" y="40.7430462" width="19.2935537" height="11.4556917"></rect>
                    </g>
                    <g id="Rectangle-8">
                        <use fill="#FFFFFF" fill-rule="evenodd" xlink:href="#path-11"></use>
                        <rect stroke="#FFFFFF" stroke-width="0.536796537" x="8.49485741" y="40.7430462" width="21.1511412" height="11.4556917"></rect>
                    </g>
                </g>
                <g id="Green-Edge" transform="translate(150.536965, 59.962441)">
                    <g id="Rectangle-1">
                        <use fill="#4AAA48" fill-rule="evenodd" xlink:href="#path-12"></use>
                        <use fill="black" fill-opacity="1" filter="url(#filter-13)" xlink:href="#path-12"></use>
                        <path stroke-opacity="0.601902174" stroke="#417505" stroke-width="0.536796537" d="M59.5603955,0.268398268 L10.5435429,0.268398268 C4.8687372,0.268398268 0.268398268,4.8687372 0.268398268,10.5435429 L0.268398268,48.4517623 C0.268398268,54.126568 4.8687372,58.7269069 10.5435429,58.7269069 L49.2852509,58.7269069 C54.9600566,58.7269069 59.5603955,54.126568 59.5603955,48.4517623 C59.5603955,24.3600803 59.5603955,24.2266245 59.5603955,0.400375453 L59.5603955,0.268398268 Z"></path>
                    </g>
                    <g id="Group-2" transform="translate(8.607626, 9.187793)">
                        <polygon id="Path-95" stroke="#FFFFFF" stroke-width="0.536796537" fill="#FFFFFF" points="4.84817652 8.73975852 0.964980545 12.4905228 0.964980545 1.23840605 12.4778809 1.23840605 8.88808239 4.84569485 37.7540306 33.100094 41.4696354 29.5900315 41.5130156 40.4445849 30.2290602 40.5339339 33.8517059 36.9272114"></polygon>
                        <g id="Rectangle-79" transform="translate(3.547510, 37.765844) rotate(-225.000000) translate(-3.547510, -37.765844) ">
                            <use fill="#FFFFFF" fill-rule="evenodd" xlink:href="#path-14"></use>
                            <rect stroke="#FFFFFF" stroke-width="0.536796537" x="1.59768717" y="36.5932283" width="3.8996462" height="2.34523167"></rect>
                        </g>
                        <g id="Rectangle-79" transform="translate(27.702580, 14.483810) rotate(-225.000000) translate(-27.702580, -14.483810) ">
                            <use fill="#FFFFFF" fill-rule="evenodd" xlink:href="#path-15"></use>
                            <rect stroke="#FFFFFF" stroke-width="0.536796537" x="25.7527566" y="13.3111946" width="3.8996462" height="2.34523167"></rect>
                        </g>
                        <g id="Rectangle-79" transform="translate(9.463037, 31.821495) rotate(-225.000000) translate(-9.463037, -31.821495) ">
                            <use fill="#FFFFFF" fill-rule="evenodd" xlink:href="#path-16"></use>
                            <rect stroke="#FFFFFF" stroke-width="0.536796537" x="7.51321437" y="30.6488793" width="3.8996462" height="2.34523167"></rect>
                        </g>
                        <g id="Rectangle-79" transform="translate(15.378565, 25.877146) rotate(-225.000000) translate(-15.378565, -25.877146) ">
                            <use fill="#FFFFFF" fill-rule="evenodd" xlink:href="#path-17"></use>
                            <rect stroke="#FFFFFF" stroke-width="0.536796537" x="13.4287416" y="24.7045302" width="3.8996462" height="2.34523167"></rect>
                        </g>
                        <g id="Rectangle-79" transform="translate(33.618107, 8.539461) rotate(-225.000000) translate(-33.618107, -8.539461) ">
                            <use fill="#FFFFFF" fill-rule="evenodd" xlink:href="#path-18"></use>
                            <rect stroke="#FFFFFF" stroke-width="0.536796537" x="31.6682838" y="7.36684559" width="3.8996462" height="2.34523167"></rect>
                        </g>
                        <g id="Rectangle-79" transform="translate(39.533634, 2.595112) rotate(-225.000000) translate(-39.533634, -2.595112) ">
                            <use fill="#FFFFFF" fill-rule="evenodd" xlink:href="#path-19"></use>
                            <rect stroke="#FFFFFF" stroke-width="0.536796537" x="37.583811" y="1.42249657" width="3.8996462" height="2.34523167"></rect>
                        </g>
                    </g>
                </g>
                <g id="Blue-Router" transform="translate(90.708171, 0.000000)">
                    <g id="Rectangle-1">
                        <use fill="#1A66A5" fill-rule="evenodd" xlink:href="#path-20"></use>
                        <use fill="black" fill-opacity="1" filter="url(#filter-21)" xlink:href="#path-20"></use>
                        <path stroke="#13558B" stroke-width="0.536796537" d="M59.4294672,0.268398268 C43.3992806,0.268398268 43.2661777,0.268398268 26.9719598,0.268398268 L10.5435429,0.268398268 C4.8687372,0.268398268 0.268398268,4.8687372 0.268398268,10.5435429 L0.268398268,48.4517623 C0.268398268,54.126568 4.8687372,58.7269069 10.5435429,58.7269069 L49.2852509,58.7269069 C54.9600566,58.7269069 59.5603955,54.126568 59.5603955,48.4517623 L59.5603955,0.268398268 L59.4294672,0.268398268 Z"></path>
                    </g>
                    <path d="M38.0772879,12.1928456 L32.4282214,12.1928456 L32.4282214,23.6814294 L26.9614828,23.6814294 L27.1632875,12.1928456 L21.5383658,12.1928458 C21.5383658,12.1928458 29.3657467,4.15807984 29.6411642,3.87536519 C29.9165817,3.59265054 38.0772879,12.1928456 38.0772879,12.1928456 Z" id="Path-94" stroke="#FFFFFF" stroke-width="0.536796537" fill="#FFFFFF"></path>
                    <path d="M38.107982,43.6247705 L32.4282214,43.6247705 L32.4282214,55.1133543 L26.9614828,55.1133543 L26.9614827,43.6247705 L21.5383658,43.6247707 C21.5383658,43.6247707 29.3657467,35.5900047 29.6411642,35.3072901 C29.9165817,35.0245754 38.107982,43.6247705 38.107982,43.6247705 Z" id="Path-94" stroke="#FFFFFF" stroke-width="0.536796537" fill="#FFFFFF" transform="translate(29.823174, 45.206912) scale(-1, -1) translate(-29.823174, -45.206912) "></path>
                    <path d="M54.9048431,28.181335 L49.3045434,28.181335 L49.3045434,39.513515 L43.8378048,39.513515 L43.8378047,28.0249312 L38.4146878,28.0249314 C38.4146878,28.0249314 46.2420687,19.9901654 46.5174862,19.7074508 C46.7929037,19.4247361 54.9048431,28.181335 54.9048431,28.181335 Z" id="Path-94" stroke="#FFFFFF" stroke-width="0.536796537" fill="#FFFFFF" transform="translate(46.659765, 29.607132) rotate(-270.000000) translate(-46.659765, -29.607132) "></path>
                    <path d="M21.4007186,28.181335 L15.8004189,28.181335 L15.8004189,39.513515 L10.3336803,39.513515 L10.3336801,28.0249312 L4.91056324,28.0249314 C4.91056324,28.0249314 12.7379442,19.9901654 13.0133617,19.7074508 C13.2887792,19.4247361 21.4007186,28.181335 21.4007186,28.181335 Z" id="Path-94" stroke="#FFFFFF" stroke-width="0.536796537" fill="#FFFFFF" transform="translate(13.155641, 29.607132) scale(-1, 1) rotate(-270.000000) translate(-13.155641, -29.607132) "></path>
                </g>
                <mask id="mask-23" fill="white">
                    <use xlink:href="#path-22"></use>
                </mask>
                <g id="Mask">
                    <use fill="#000000" fill-rule="evenodd" xlink:href="#path-22"></use>
                    <use fill="black" fill-opacity="1" filter="url(#filter-24)" xlink:href="#path-22"></use>
                </g>
            </g>
            <polygon id="Path-4" fill="url(#linearGradient-25)" points="56.3397972 49.3239437 55.9688716 59.8092766 86.3689873 76.7807627 56.6199644 94.5610421 56.5436748 105.41784 98.4280156 81.2778641 98.4280156 73.7062945"></polygon>
            <path d="M102.287938,100.58216 L124.48249,100.58216" id="Path-4" stroke="url(#linearGradient-26)" stroke-width="8.6961039"></path>
        </g>
    </g>
</svg>